<svg width="1413" height="682" viewBox="0 0 1413 682" fill="none" xmlns="http://www.w3.org/2000/svg">
<g clip-path="url(#clip0_8_139)">
<path d="M1402.98 150.028C1394.35 134.705 1382.23 121.631 1367.6 111.863C1352.98 102.095 1336.26 95.9088 1318.8 93.8046C1301.34 91.7003 1283.63 93.7374 1267.1 99.751C1250.58 105.764 1235.7 115.585 1223.67 128.418C1211.65 141.251 1202.81 156.736 1197.88 173.618C1192.96 190.5 1192.07 208.306 1195.31 225.593C1198.54 242.88 1205.8 259.162 1216.5 273.122C1227.19 287.081 1241.03 298.326 1256.88 305.945L1277.76 262.508C1268.73 258.168 1260.85 251.762 1254.75 243.809C1248.66 235.856 1244.52 226.58 1242.68 216.732C1240.84 206.883 1241.34 196.74 1244.15 187.122C1246.96 177.504 1251.99 168.683 1258.84 161.372C1265.69 154.061 1274.17 148.466 1283.58 145.04C1293 141.614 1303.09 140.453 1313.03 141.652C1322.98 142.851 1332.51 146.375 1340.84 151.94C1349.17 157.505 1356.07 164.953 1360.99 173.682L1402.98 150.028Z" fill="#6070FF"/>
<path d="M265.633 725.783C267.955 723.017 269.593 719.743 270.415 716.226C271.236 712.709 271.218 709.048 270.362 705.539C269.505 702.031 267.835 698.773 265.485 696.031C263.136 693.288 260.173 691.137 256.838 689.752C253.502 688.367 249.888 687.787 246.286 688.059C242.685 688.331 239.198 689.447 236.109 691.317C233.019 693.187 230.413 695.758 228.502 698.823C226.591 701.887 225.428 705.358 225.108 708.956L234.966 709.833C235.148 707.783 235.811 705.805 236.9 704.06C237.988 702.314 239.473 700.849 241.233 699.784C242.993 698.718 244.98 698.082 247.031 697.928C249.083 697.773 251.142 698.103 253.043 698.892C254.943 699.681 256.63 700.907 257.969 702.469C259.307 704.032 260.259 705.887 260.747 707.886C261.235 709.885 261.245 711.971 260.777 713.974C260.309 715.978 259.376 717.843 258.053 719.419L265.633 725.783Z" fill="#EBEBFF"/>
<rect x="1131.4" y="122" width="204" height="47" transform="rotate(-30 1131.4 122)" fill="#EBEBFF"/>
<rect x="716.838" y="651" width="161.407" height="28.875" transform="rotate(23.34 716.838 651)" fill="#EBEBFF"/>
<rect width="56.0124" height="10.0203" transform="matrix(0.977401 -0.211395 -0.211395 -0.977401 678.652 162.572)" fill="#6070FF"/>
<rect x="20" y="119.923" width="108.669" height="19.4403" transform="rotate(-46.1415 20 119.923)" fill="#EBEBFF"/>
<circle cx="847.898" cy="682.5" r="23.5" fill="#6070FF"/>
<circle cx="704.898" cy="169.5" r="11.5" fill="#EBEBFF"/>
<circle cx="1196.9" cy="582.5" r="37" fill="white" stroke="#EBEBFF"/>
<circle r="19" transform="matrix(1 0 0 -1 969.898 73.5)" fill="white" stroke="#EBEBFF"/>
<circle cx="371.898" cy="73.5" r="7" fill="white" stroke="#EBEBFF"/>
<circle r="11" transform="matrix(1 0 0 -1 69.8984 424.5)" fill="white" stroke="#EBEBFF"/>
<path d="M66.3828 93.0741C62.1922 102.889 62.0723 113.967 66.0494 123.87C70.0266 133.774 77.775 141.692 87.59 145.883C97.4051 150.073 108.483 150.193 118.386 146.216C128.29 142.239 136.208 134.49 140.399 124.675L66.3828 93.0741Z" fill="#6070FF"/>
<path d="M240.553 670C240.219 674.881 241.837 679.695 245.053 683.383C248.268 687.071 252.816 689.331 257.697 689.666C262.579 690 267.393 688.381 271.081 685.166C274.769 681.951 277.029 677.403 277.363 672.521L240.553 670Z" fill="#6070FF"/>
</g>
<rect x="0.5" y="0.5" width="1412" height="681" rx="4.5" stroke="#9747FF" stroke-dasharray="10 5"/>
<defs>
<clipPath id="clip0_8_139">
<rect width="1413" height="682" rx="5" fill="white"/>
</clipPath>
</defs>
</svg>
